<?xml version="1.0" encoding="UTF-8"?>
<svg version="1.1" xmlns="http://www.w3.org/2000/svg" width="300" height="300">
<path d="M0 0 C23.76 0 47.52 0 72 0 C72 23.76 72 47.52 72 72 C48.24 72 24.48 72 0 72 C0 48.24 0 24.48 0 0 Z M8 7 C8 8.65 8 10.3 8 12 C9.65 12 11.3 12 13 12 C13 10.35 13 8.7 13 7 C11.35 7 9.7 7 8 7 Z M20 7 C20 8.65 20 10.3 20 12 C21.98 12 23.96 12 26 12 C26 10.35 26 8.7 26 7 C24.02 7 22.04 7 20 7 Z M33 7 C33 8.65 33 10.3 33 12 C34.98 12 36.96 12 39 12 C39 10.35 39 8.7 39 7 C37.02 7 35.04 7 33 7 Z M46 7 C46 8.65 46 10.3 46 12 C47.98 12 49.96 12 52 12 C52 10.35 52 8.7 52 7 C50.02 7 48.04 7 46 7 Z M59 7 C59 8.65 59 10.3 59 12 C60.98 12 62.96 12 65 12 C65 10.35 65 8.7 65 7 C63.02 7 61.04 7 59 7 Z M8 20 C8 21.65 8 23.3 8 25 C9.65 25 11.3 25 13 25 C13 23.35 13 21.7 13 20 C11.35 20 9.7 20 8 20 Z M20 20 C20 21.65 20 23.3 20 25 C21.98 25 23.96 25 26 25 C26 23.35 26 21.7 26 20 C24.02 20 22.04 20 20 20 Z M33 20 C33 21.65 33 23.3 33 25 C34.98 25 36.96 25 39 25 C39 23.35 39 21.7 39 20 C37.02 20 35.04 20 33 20 Z M46 20 C46 21.65 46 23.3 46 25 C47.98 25 49.96 25 52 25 C52 23.35 52 21.7 52 20 C50.02 20 48.04 20 46 20 Z M59 20 C59 21.65 59 23.3 59 25 C60.98 25 62.96 25 65 25 C65 23.35 65 21.7 65 20 C63.02 20 61.04 20 59 20 Z M8 33 C8 34.65 8 36.3 8 38 C9.65 38 11.3 38 13 38 C13 36.35 13 34.7 13 33 C11.35 33 9.7 33 8 33 Z M20 33 C20 34.65 20 36.3 20 38 C21.98 38 23.96 38 26 38 C26 36.35 26 34.7 26 33 C24.02 33 22.04 33 20 33 Z M33 33 C33 34.65 33 36.3 33 38 C34.98 38 36.96 38 39 38 C39 36.35 39 34.7 39 33 C37.02 33 35.04 33 33 33 Z M46 33 C46 34.65 46 36.3 46 38 C47.98 38 49.96 38 52 38 C52 36.35 52 34.7 52 33 C50.02 33 48.04 33 46 33 Z M59 33 C59 34.65 59 36.3 59 38 C60.98 38 62.96 38 65 38 C65 36.35 65 34.7 65 33 C63.02 33 61.04 33 59 33 Z M8 46 C8 47.65 8 49.3 8 51 C9.65 51 11.3 51 13 51 C13 49.35 13 47.7 13 46 C11.35 46 9.7 46 8 46 Z M20 46 C20 47.65 20 49.3 20 51 C21.98 51 23.96 51 26 51 C26 49.35 26 47.7 26 46 C24.02 46 22.04 46 20 46 Z M33 46 C33 47.65 33 49.3 33 51 C34.98 51 36.96 51 39 51 C39 49.35 39 47.7 39 46 C37.02 46 35.04 46 33 46 Z M46 46 C46 47.65 46 49.3 46 51 C47.98 51 49.96 51 52 51 C52 49.35 52 47.7 52 46 C50.02 46 48.04 46 46 46 Z M59 46 C59 47.65 59 49.3 59 51 C60.98 51 62.96 51 65 51 C65 49.35 65 47.7 65 46 C63.02 46 61.04 46 59 46 Z M8 59 C8 60.65 8 62.3 8 64 C9.65 64 11.3 64 13 64 C13 62.35 13 60.7 13 59 C11.35 59 9.7 59 8 59 Z M20 59 C20 60.65 20 62.3 20 64 C21.98 64 23.96 64 26 64 C26 62.35 26 60.7 26 59 C24.02 59 22.04 59 20 59 Z M33 59 C33 60.65 33 62.3 33 64 C34.98 64 36.96 64 39 64 C39 62.35 39 60.7 39 59 C37.02 59 35.04 59 33 59 Z M46 59 C46 60.65 46 62.3 46 64 C47.98 64 49.96 64 52 64 C52 62.35 52 60.7 52 59 C50.02 59 48.04 59 46 59 Z M59 59 C59 60.65 59 62.3 59 64 C60.98 64 62.96 64 65 64 C65 62.35 65 60.7 65 59 C63.02 59 61.04 59 59 59 Z " fill="#FFFFFF" transform="translate(77,114)"/>
<path d="M0 0 C3.63 0 7.26 0 11 0 C11 39.6 11 79.2 11 120 C7.37 120 3.74 120 0 120 C0 80.4 0 40.8 0 0 Z " fill="#FFFFFF" transform="translate(180,90)"/>
</svg>
